<svg version="1.1" viewBox="0.0 0.0 323.20472440944883 153.7244094488189" fill="none" stroke="none" stroke-linecap="square" stroke-miterlimit="10" xmlns:xlink="http://www.w3.org/1999/xlink" xmlns="http://www.w3.org/2000/svg"><clipPath id="p.0"><path d="m0 0l323.2047 0l0 153.72441l-323.2047 0l0 -153.72441z" clip-rule="nonzero"/></clipPath><g clip-path="url(#p.0)"><path fill="#000000" fill-opacity="0.0" d="m0 0l323.2047 0l0 153.72441l-323.2047 0z" fill-rule="evenodd"/><path fill="#000000" fill-opacity="0.0" d="m-17.641733 18.406096l0 0c0 -16.142693 13.086239 -29.228931 29.228931 -29.228931l300.03033 0c7.7519836 0 15.186493 3.0794683 20.667969 8.560956c5.4815063 5.481488 8.560974 12.915981 8.560974 20.667974l0 116.91222c0 16.142685 -13.086243 29.228928 -29.228943 29.228928l-300.03033 0c-16.142693 0 -29.228931 -13.086243 -29.228931 -29.228928z" fill-rule="evenodd"/><path fill="#ffffff" d="m39.121887 79.0997l-26.515625 0l0 26.5625l-4.8125 0l0 -56.875004l35.234375 0l0 4.09375l-30.421875 0l0 22.109379l26.515625 0l0 4.109375zm37.9375 26.5625q-0.703125 -2.0 -0.90625 -5.90625q-2.453125 3.203125 -6.265625 4.953125q-3.8125 1.734375 -8.0625 1.734375q-6.09375 0 -9.875 -3.390625q-3.765625 -3.40625 -3.765625 -8.609375q0 -6.171875 5.140625 -9.765625q5.140625 -3.59375 14.3125 -3.59375l8.484375 0l0 -4.796875q0 -4.53125 -2.796875 -7.125q-2.796875 -2.609375 -8.140625 -2.609375q-4.890625 0 -8.09375 2.5q-3.203125 2.5 -3.203125 6.015625l-4.6875 -0.03125q0 -5.046875 4.6875 -8.734375q4.6875 -3.6875038 11.53125 -3.6875038q7.0625 0 11.140625 3.5312538q4.09375 3.53125 4.203125 9.859375l0 20.0q0 6.140625 1.296875 9.1875l0 0.46875l-5.0 0zm-14.6875 -3.359375q4.6875 0 8.375 -2.265625q3.6875 -2.265625 5.375 -6.0625l0 -9.296875l-8.359375 0q-7.0 0.078125 -10.953125 2.5625q-3.9375 2.484375 -3.9375 6.8125q0 3.5625 2.640625 5.90625q2.640625 2.34375 6.859375 2.34375zm44.132812 -21.765625l11.40625 -17.140629l5.546875 0l-14.328125 20.734379l14.953125 21.53125l-5.5 0l-12.03125 -17.890625l-12.03125 17.890625l-5.515625 0l14.921875 -21.53125l-14.328125 -20.734379l5.5 0l11.40625 17.140629zm57.421875 9.1875l-25.8125 0l-5.859375 15.9375l-5.046875 0l21.53125 -56.875004l4.5625 0l21.53125 56.875004l-5.0 0l-5.90625 -15.9375zm-24.328125 -4.109375l22.8125 0l-11.40625 -30.968754l-11.40625 30.968754zm75.77344 6.0625q0 -4.734375 -3.328125 -7.484375q-3.3125 -2.75 -12.140625 -5.234375q-8.828125 -2.484375 -12.890625 -5.40625q-5.78125 -4.140625 -5.78125 -10.859379q0 -6.53125 5.375 -10.609375q5.375 -4.078125 13.734375 -4.078125q5.65625 0 10.125 2.1875q4.484375 2.1875 6.9375 6.09375q2.46875 3.90625 2.46875 8.703129l-4.84375 0q0 -5.812504 -3.984375 -9.343754q-3.984375 -3.546875 -10.703125 -3.546875q-6.53125 0 -10.40625 2.921875q-3.859375 2.90625 -3.859375 7.59375q0 4.328129 3.46875 7.062504q3.484375 2.734375 11.140625 4.828125q7.65625 2.09375 11.59375 4.34375q3.953125 2.234375 5.9375 5.359375q2.0 3.125 2.0 7.390625q0 6.71875 -5.375 10.78125q-5.359375 4.0625 -14.15625 4.0625q-6.015625 0 -11.03125 -2.140625q-5.015625 -2.15625 -7.625 -6.015625q-2.59375 -3.875 -2.59375 -8.875l4.8125 0q0 6.015625 4.484375 9.5q4.5 3.46875 11.953125 3.46875q6.640625 0 10.65625 -2.921875q4.03125 -2.9375 4.03125 -7.78125zm45.898438 -1.953125l-25.8125 0l-5.859375 15.9375l-5.046875 0l21.53125 -56.875004l4.5625 0l21.53125 56.875004l-5.0 0l-5.90625 -15.9375zm-24.328125 -4.109375l22.8125 0l-11.40625 -30.968754l-11.40625 30.968754zm48.398438 -3.125l0 23.171875l-4.8125 0l0 -56.875004l19.375 0q8.875 0 14.0 4.53125q5.140625 4.53125 5.140625 12.453129q0 8.015625 -4.9375 12.375q-4.9375 4.34375 -14.3125 4.34375l-14.453125 0zm0 -4.0625l14.5625 0q7.0 0 10.671875 -3.3125q3.671875 -3.328125 3.671875 -9.265625q0 -5.890629 -3.65625 -9.390629q-3.65625 -3.5 -10.375 -3.578125l-14.875 0l0 25.546879z" fill-rule="nonzero"/></g></svg>