<svg version="1.1" viewBox="0.0 0.0 165.0682414698163 154.01312335958005" fill="none" stroke="none" stroke-linecap="square" stroke-miterlimit="10" xmlns:xlink="http://www.w3.org/1999/xlink" xmlns="http://www.w3.org/2000/svg"><clipPath id="p.0"><path d="m0 0l165.06824 0l0 154.01312l-165.06824 0l0 -154.01312z" clip-rule="nonzero"/></clipPath><g clip-path="url(#p.0)"><path fill="#000000" fill-opacity="0.0" d="m0 0l165.06824 0l0 154.01312l-165.06824 0z" fill-rule="evenodd"/><path fill="#3c78d8" d="m0 25.664555l0 0c0 -14.174142 11.490413 -25.664555 25.664555 -25.664555l113.584274 0c6.806671 0 13.334549 2.7039363 18.147583 7.516974c4.813034 4.8130383 7.516983 11.340918 7.516983 18.147581l0 102.65515c0 14.174133 -11.4904175 25.66455 -25.664566 25.66455l-113.584274 0c-14.174142 0 -25.664555 -11.4904175 -25.664555 -25.66455z" fill-rule="evenodd"/><path fill="#ffffff" d="m79.019196 79.22962l-26.515625 0l0 26.5625l-4.8125 0l0 -56.875l35.234375 0l0 4.09375l-30.421875 0l0 22.109375l26.515625 0l0 4.109375zm25.859375 1.4375l11.40625 -17.140625l5.546875 0l-14.328125 20.734375l14.953125 21.53125l-5.5 0l-12.03125 -17.890625l-12.03125 17.890625l-5.515625 0l14.921875 -21.53125l-14.328125 -20.734375l5.5 0l11.40625 17.140625z" fill-rule="nonzero"/></g></svg>