<svg class="twilio-seal-white" xmlns="http://www.w3.org/2000/svg" viewBox="0 0 740 160">
  <!--<path class="twilio-seal__box" fill="#F22F46" d="M0 0h740v160H0V0z"/>-->
  <path class="twilio-seal__text" fill="#FFF" d="M70.6 80.8h-4.8V97H62V58.6h9.6c7.8 0 12.6 3.8 12.6 10.8-.2 7.6-5.8 11.4-13.6 11.4zm.6-18.8h-5.4v15.4h5c5.8 0 9.4-2.6 9.4-8 0-4.8-3.2-7.4-9-7.4zm28 35.6c-6.8 0-11.8-5-11.8-13.6 0-8.8 5.2-13.8 11.8-13.8 6.8 0 12 5 12 13.8 0 8.6-5.2 13.6-12 13.6zm0-24.4c-5.2 0-8 4.4-8 10.6 0 6 2.8 10.6 8 10.6 5.4 0 8.2-4.4 8.2-10.6 0-6-2.8-10.6-8.2-10.6zm44 24H140l-6.6-21.6-6.6 21.6h-3L115 71l3.6-.6 6.8 21.6 6.6-21.4h3.2l6.6 21.4 6.6-21.4h3.6l-8.8 26.6zM177.6 84h-18.4c.2 6.4 3.2 10.2 8.4 10.2 3.6 0 6.6-1.6 9.2-3.8l.6 3.4c-2.6 2.2-6 3.8-10 3.8-6.8 0-11.8-4.6-11.8-13.8 0-8.4 4.8-13.6 11.4-13.6 7.2 0 10.6 5.8 10.6 13.2v.6zM167 73c-4.2 0-6.8 3-7.6 8.2h14.4c-.4-4.8-2.6-8.2-6.8-8.2zm21.2 7.4V97h-3.6V70.6h2.8l.8 5.4c2-3 5-5.8 9.4-6l.6 3.4c-4.4.4-8.2 3.6-10 7zM223 84h-18.4c.2 6.4 3.2 10.2 8.4 10.2 3.6 0 6.6-1.6 9.2-3.8l.6 3.4c-2.6 2.2-6 3.8-10 3.8-6.8 0-11.8-4.6-11.8-13.8 0-8.4 4.8-13.6 11.4-13.6 7.2 0 10.6 5.8 10.6 13.2v.6zm-10.6-11c-4.2 0-6.8 3-7.6 8.2h14.4c-.2-4.8-2.6-8.2-6.8-8.2zm35.8 24l-.6-3.8c-2 2.4-4.6 4.4-8.4 4.4-5.8 0-10.6-4.2-10.6-13 0-9.6 5.6-14.2 12-14.2 2.6 0 5 .6 6.8 1.4v-14l3.6-.6v40h-2.8V97zm-.8-22c-2-1-4-1.6-6.8-1.6-4.8 0-8.4 3.6-8.4 11 0 6.4 3 9.8 7.2 9.8 3.2 0 5.6-1.8 8-4.8V75zm34.4 22.4c-3.6 0-6.6-.8-9.6-1.8v-38l3.6-.6v17c1.8-2 4.4-4 8.2-4 5.8 0 10.6 4.2 10.6 13 0 9.6-5.6 14.4-12.8 14.4zm1.8-24c-3 0-5.4 1.8-7.8 4.6v15.2c1.6.6 3.4 1 6 1 5.2 0 9-3.4 9-11 0-6.4-3-9.8-7.2-9.8zm27 26.8c-1.8 5.2-4.2 6.8-8.2 6.8-.6 0-1-.2-1.4-.2l-.6-3.2c.6.2 1.4.2 2.2.2 2.2 0 3.4-1 4.4-3.6l1.2-3.2-10-26.2 3.6-.6 8.2 22.4 7.8-22h3.8l-11 29.6z"/>
  <path class="twilio-seal__logo" fill="#FFF" d="M578.8 50.4v10.2c0 .4-.4.8-.8.8h-17.6c-.4 0-.8-.4-.8-.8V50.4c0-.4.4-.8.8-.8H578c.4 0 .8.4.8.8zm-1.2 14.4h-34c-.4 0-1 .4-1.2.8L538 82.2l-.2.8-5.2-17.8c-.2-.4-.6-.8-1.2-.8h-13.2c-.4 0-1 .4-1.2.8l-5 16.6-.2.8-.2-.8-2.2-8.2-2.2-8.2c-.2-.4-.6-.8-1.2-.8h-26.6V50.2c0-.4-.6-1-1.2-.8l-16.8 5.2c-.6.2-.8.4-.8.8v9h-4.4c-.4 0-.8.4-.8.8V78c0 .4.4.8.8.8h4.4v15.6c0 11 6 16.2 17 16.2 4.6 0 9-1 12-2.6V94.8c0-.6-.6-.8-1-.8-1.8.8-3.2 1-4.8 1-3 0-4.6-1.2-4.6-4.6V79h9.6c.4 0 .8-.4.8-.8V67.4l12.6 41.8c.2.4.6.8 1.2.8h13.8c.4 0 1-.4 1.2-.8l6-18.6 3 9.6 2.8 8.8c.2.4.6.8 1.2.8h14c.4 0 1-.4 1.2-.8l12.8-42v42c0 .4.4.8.8.8h17c.4 0 .8-.4.8-.8V65.8c.6-.6.2-1-.4-1zM600 49.6h-17c-.4 0-.8.4-.8.8v59c0 .4.4.8.8.8h17c.4 0 .8-.4.8-.8v-59c.2-.4-.2-.8-.8-.8zm22.8 0h-17.6c-.4 0-.8.4-.8.8v10.2c0 .4.4.8.8.8h17.6c.4 0 .8-.4.8-.8V50.4c0-.4-.4-.8-.8-.8zm-.4 15.2h-17c-.4 0-.8.4-.8.8v43.8c0 .4.4.8.8.8h17c.4 0 .8-.4.8-.8V65.8c.2-.6-.2-1-.8-1zM676 87.2c0 13-10.6 23.8-25.6 23.8-14.8 0-25.4-10.8-25.4-23.6v-.2c0-12.8 10.6-23.8 25.6-23.8 14.8.4 25.4 11.2 25.4 23.8zm-18 .2c0-4.4-3.4-8-7.4-8-4.2 0-7.2 3.6-7.2 7.8v.2c0 4.4 3.4 8 7.4 8s7.2-3.4 7.2-8zM443.6 80c0 27.6-22.4 50-50 50s-50-22.4-50-50 22.4-50 50-50 50 22.4 50 50zm-13 0c0-20.4-16.4-36.8-36.8-36.8S357 59.6 357 80s16.4 36.8 36.8 36.8c20.2 0 36.8-16.4 36.8-36.8zm-24.4-2c5.8 0 10.4-4.6 10.4-10.4s-4.6-10.4-10.4-10.4-10.4 4.6-10.4 10.4S400.4 78 406.2 78zm0 24.8c5.8 0 10.4-4.6 10.4-10.4S412 82 406.2 82s-10.4 4.6-10.4 10.4 4.6 10.4 10.4 10.4zm-25 0c5.8 0 10.4-4.6 10.4-10.4S387 82 381.2 82s-10.4 4.6-10.4 10.4 4.6 10.4 10.4 10.4zm0-24.8c5.8 0 10.4-4.6 10.4-10.4s-4.6-10.4-10.4-10.4-10.4 4.6-10.4 10.4c0 5.6 4.6 10.4 10.4 10.4z"/>
</svg>
